# xmcd CD database file generated by Grip 3.0.3
# 
# Track frame offsets:
#       183
#       25545
#       39033
#       54868
#       66270
#       80450
#       92883
#       104933
#       118728
#       129623
#       140365
#       152815
#       166100
#       178235
#       193465
#       204920
#       227335
#       241705
#       255088
#       269043
# 
# Disc length: 3754 seconds
# 
# Revision: 1
# Processed by: cddbd v1.4PL0 Copyright (c) Steve Scherf et al.
# Submitted via: Grip 3.0.3
# 
DISCID=0c0ea814
DTITLE=Howlin' Wolf - The Howlin' Wolf Collection
DYEAR=1987
DGENRE=Blues
TTITLE0=Little Red Rooster
TTITLE1=My Baby Walked Off
TTITLE2=Killing Floor
TTITLE3=My Country Sugar Mama
TTITLE4=My Life
TTITLE5=Going Back Home
TTITLE6=Louise
TTITLE7=Highway 49
TTITLE8=Hold On To Your Money
TTITLE9=Built For Comfort
TTITLE10=Ain't Superstitious
TTITLE11=My Last Affair
TTITLE12=Dorothy Mae
TTITLE13=Commit A Crime
TTITLE14=Moanin' At Midnight
TTITLE15=Wang Dang Doodle
TTITLE16=Ridin' In The Moonlight
TTITLE17=Everybody's In The Mood
TTITLE18=The Wolf Is At Your Door
TTITLE19=I Better Go Now
EXTD=
EXTT0=
EXTT1=
EXTT2=
EXTT3=
EXTT4=
EXTT5=
EXTT6=
EXTT7=
EXTT8=
EXTT9=
EXTT10=
EXTT11=
EXTT12=
EXTT13=
EXTT14=
EXTT15=
EXTT16=
EXTT17=
EXTT18=
EXTT19=
PLAYORDER=
